<svg xmlns="http://www.w3.org/2000/svg" viewBox="0 0 24 24" fill="#FC4A1A">
  <path d="M13.135 0H9.315C4.175 0 0 4.175 0 9.315v5.37C0 19.825 4.175 24 9.315 24h5.37C19.825 24 24 19.825 24 14.685V9.315C24 4.175 19.825 0 14.685 0h-1.55zm-.9 5.07h1.55c.855 0 1.55.695 1.55 1.55v.62h-4.65v-.62c0-.855.695-1.55 1.55-1.55zm-3.1 3.72h7.75c.855 0 1.55.695 1.55 1.55v1.24H7.685V10.34c0-.855.695-1.55 1.55-1.55zm-1.55 4.34h10.85v1.86c0 .855-.695 1.55-1.55 1.55H7.685v-1.86c0-.855.695-1.55 1.55-1.55h-.65v.65h7.1v-.65h-.65c.855 0 1.55-.695 1.55-1.55z"/>
</svg>
